<?xml version="1.0" encoding="UTF-8"?>
<svg width="58px" height="77px" viewBox="0 0 58 77" version="1.1" xmlns="http://www.w3.org/2000/svg" xmlns:xlink="http://www.w3.org/1999/xlink">
    <!-- Generator: Sketch 52.4 (67378) - http://www.bohemiancoding.com/sketch -->
    <title>logomod</title>
    <desc>Created with Sketch.</desc>
    <g id="Page-1" stroke="none" stroke-width="1" fill="none" fill-rule="evenodd">
        <g id="logomod" transform="translate(2.000000, 2.000000)">
            <rect id="Rectangle" stroke="#CFCFCF" stroke-width="4" x="0" y="0" width="54" height="54"></rect>
            <path d="M20.0234,15.6719 L21.8398,15.6719 L21.8398,30.6572 C21.8398,32.6787 21.2539,34.29 20.082,35.4912 C18.9199,36.6924 17.3574,37.293 15.3945,37.293 C13.3242,37.293 11.7324,36.751 10.6191,35.667 C9.5059,34.583 8.9492,33.0693 8.9492,31.126 L10.751,31.126 C10.751,32.6689 11.1562,33.8311 11.9668,34.6123 C12.7773,35.3838 13.9199,35.7695 15.3945,35.7695 C16.752,35.7695 17.8555,35.3203 18.7051,34.4219 C19.5645,33.5234 20.0039,32.3027 20.0234,30.7598 L20.0234,15.6719 Z M27.1279,37 L27.1279,15.6719 L33.0898,15.6719 C34.8379,15.6719 36.4053,16.0723 37.792,16.873 C39.1787,17.6641 40.2578,18.8018 41.0293,20.2861 C41.8105,21.7705 42.2012,23.46 42.2012,25.3545 L42.2012,27.3174 C42.2012,29.2217 41.8154,30.9111 41.0439,32.3857 C40.2725,33.8604 39.1836,34.998 37.7773,35.7988 C36.3809,36.5996 34.7744,37 32.958,37 L27.1279,37 Z M28.9297,17.21 L28.9297,35.4766 L32.9727,35.4766 C35.2188,35.4766 37.0205,34.7344 38.3779,33.25 C39.7354,31.7559 40.4141,29.7393 40.4141,27.2002 L40.4141,25.3252 C40.4141,22.874 39.7451,20.9111 38.4072,19.4365 C37.0693,17.9619 35.3066,17.2197 33.1191,17.21 L28.9297,17.21 Z" id="Shape" fill="#BD9C68" fill-rule="nonzero"></path>
            <path d="M3.12891,74 L3.12891,64.0469 L6.33496,64.0469 C7.21452,64.0469 8.0052,64.2474 8.707,64.6484 C9.4089,65.0449 9.9557,65.6077 10.3477,66.3369 C10.7441,67.0615 10.9447,67.875 10.9492,68.7773 L10.9492,69.2354 C10.9492,70.1468 10.7555,70.9648 10.3682,71.6895 C9.9854,72.4095 9.443,72.9746 8.7412,73.3848 C8.0439,73.7904 7.26465,73.9954 6.40332,74 L3.12891,74 Z M5.52832,65.8994 L5.52832,72.1543 L6.3623,72.1543 C7.05046,72.1543 7.5791,71.9105 7.94824,71.4229 C8.3174,70.9307 8.502,70.2015 8.502,69.2354 L8.502,68.8047 C8.502,67.8431 8.3174,67.1185 7.94824,66.6309 C7.5791,66.1432 7.04134,65.8994 6.33496,65.8994 L5.52832,65.8994 Z M18.3525,69.7822 L14.5791,69.7822 L14.5791,72.1543 L19.0361,72.1543 L19.0361,74 L12.1797,74 L12.1797,64.0469 L19.0498,64.0469 L19.0498,65.8994 L14.5791,65.8994 L14.5791,67.998 L18.3525,67.998 L18.3525,69.7822 Z M25.1475,71.3545 C25.1475,71.0036 25.0221,70.7301 24.7715,70.5342 C24.5254,70.3382 24.0902,70.1354 23.4658,69.9258 C22.8415,69.7161 22.3311,69.5133 21.9346,69.3174 C20.6449,68.6839 20,67.8135 20,66.7061 C20,66.1546 20.1595,65.6693 20.4785,65.25 C20.8021,64.8262 21.2578,64.498 21.8457,64.2656 C22.4336,64.0286 23.0944,63.9102 23.8281,63.9102 C24.5436,63.9102 25.1839,64.0378 25.749,64.293 C26.3187,64.5482 26.7607,64.9128 27.0752,65.3867 C27.3896,65.8561 27.5469,66.3939 27.5469,67 L25.1543,67 C25.1543,66.5944 25.029,66.2799 24.7783,66.0566 C24.5322,65.8333 24.1973,65.7217 23.7734,65.7217 C23.3451,65.7217 23.0055,65.8174 22.7549,66.0088 C22.5088,66.1956 22.3857,66.4349 22.3857,66.7266 C22.3857,66.9818 22.5225,67.2142 22.7959,67.4238 C23.0693,67.6289 23.5501,67.8431 24.2383,68.0664 C24.9264,68.2852 25.4915,68.5221 25.9336,68.7773 C27.0091,69.3971 27.5469,70.2516 27.5469,71.3408 C27.5469,72.2113 27.2188,72.8949 26.5625,73.3916 C25.9062,73.8883 25.0062,74.1367 23.8623,74.1367 C23.0557,74.1367 22.3242,73.9932 21.668,73.7061 C21.0163,73.4144 20.5241,73.0179 20.1914,72.5166 C19.8633,72.0107 19.6992,71.4297 19.6992,70.7734 L22.1055,70.7734 C22.1055,71.3066 22.2422,71.7008 22.5156,71.9561 C22.7936,72.2067 23.2425,72.332 23.8623,72.332 C24.2588,72.332 24.571,72.2477 24.7988,72.0791 C25.0312,71.9059 25.1475,71.6644 25.1475,71.3545 Z M31.334,74 L28.9414,74 L28.9414,64.0469 L31.334,64.0469 L31.334,74 Z M41.1504,72.7695 C40.7812,73.1797 40.2412,73.5101 39.5303,73.7607 C38.8193,74.0114 38.04,74.1367 37.1924,74.1367 C35.889,74.1367 34.8477,73.738 34.0684,72.9404 C33.2891,72.1429 32.8721,71.0332 32.8174,69.6113 L32.8105,68.75 C32.8105,67.7702 32.9837,66.9157 33.3301,66.1865 C33.6764,65.4528 34.1709,64.89 34.8135,64.498 C35.4606,64.1016 36.208,63.9033 37.0557,63.9033 C38.2952,63.9033 39.2568,64.1882 39.9404,64.7578 C40.6286,65.3229 41.0296,66.1683 41.1436,67.2939 L38.833,67.2939 C38.751,66.738 38.5732,66.3415 38.2998,66.1045 C38.0264,65.8675 37.639,65.749 37.1377,65.749 C36.5361,65.749 36.0713,66.0042 35.7432,66.5146 C35.415,67.0251 35.2487,67.7542 35.2441,68.7021 L35.2441,69.3037 C35.2441,70.2972 35.4128,71.0446 35.75,71.5459 C36.0918,72.0426 36.6273,72.291 37.3564,72.291 C37.9808,72.291 38.4456,72.152 38.751,71.874 L38.751,70.3291 L37.083,70.3291 L37.083,68.6816 L41.1504,68.6816 L41.1504,72.7695 Z M50.8574,74 L48.4717,74 L44.9443,67.8066 L44.9443,74 L42.5449,74 L42.5449,64.0469 L44.9443,64.0469 L48.4648,70.2402 L48.4648,64.0469 L50.8574,64.0469 L50.8574,74 Z" id="Shape" fill="#CFCFCF" fill-rule="nonzero"></path>
        </g>
    </g>
</svg>